<?xml version="1.0" encoding="utf-8"?>
<!-- Generator: Adobe Illustrator 24.3.0, SVG Export Plug-In . SVG Version: 6.00 Build 0)  -->
<svg version="1.1" id="Layer_1" xmlns="http://www.w3.org/2000/svg" xmlns:xlink="http://www.w3.org/1999/xlink" x="0px" y="0px"
	 viewBox="0 0 1200 1200" style="enable-background:new 0 0 1200 1200;" xml:space="preserve">
<style type="text/css">
	.st0{fill:#FFFFFF;}
	.st1{fill:url(#SVGID_1_);}
</style>
<rect class="st0" width="1200" height="1200"/>
<linearGradient id="SVGID_1_" gradientUnits="userSpaceOnUse" x1="105.2479" y1="567.3854" x2="1122.623" y2="567.3854">
	<stop  offset="0" style="stop-color:#008816"/>
	<stop  offset="0.0398" style="stop-color:#008B13"/>
	<stop  offset="0.2589" style="stop-color:#009908"/>
	<stop  offset="0.529" style="stop-color:#00A202"/>
	<stop  offset="1" style="stop-color:#00A400"/>
</linearGradient>
<path class="st1" d="M846.62,451.31c-43.51,0-83.27,10.36-119.28,31.03c-36.02,20.7-65.09,48.51-87.19,83.44V248.69
	c0.52-5.87-0.96-16.16-21.49-55.55c-68.71-118.54-195.04-45.47-259,45.43c-7.95-0.74-16.05-1.22-24.4-1.22
	c-59.91,0-109.3,17.66-148.16,52.95c-38.88,35.3-58.3,81.13-58.3,137.47c0,46.37,12.84,83.82,38.51,112.33
	c25.68,28.54,56.87,49.39,93.61,62.59c36.72,13.2,73.45,25.66,110.19,37.44c36.72,11.77,67.94,29.78,93.61,54.02
	c25.67,24.27,38.51,56.36,38.51,96.28c0,46.38-14.98,82.57-44.93,108.58c-29.95,26.05-69.18,39.06-117.67,39.06
	c-49.21,0-89.33-14.26-120.35-42.8c-31.02-28.52-46.54-65.61-46.54-111.25h-68.47c0,63.48,22.47,115.9,67.4,157.25
	c44.93,41.36,100.19,62.05,165.82,62.05c66.33,0,121.77-19.61,166.35-58.83c44.56-39.21,66.86-90.57,66.86-154.06
	c0-37.79-6.95-70.06-20.86-96.81c-13.91-26.74-31.74-47.42-53.49-62.05c-21.76-14.62-46-27.1-72.74-37.44s-53.49-19.61-80.23-27.81
	c-26.74-8.19-51-17.29-72.75-27.29c-21.76-9.97-39.58-24.23-53.49-42.78c-13.91-18.54-20.86-41.01-20.86-67.41
	c0-37.06,13-67.38,39.05-90.92c24.1-21.8,54.24-33.36,90.28-34.97c-0.1,0.31-0.22,0.62-0.32,0.92
	C306.98,368.06,313.44,444,360.77,495.1c29.17,32.37,84.35,47.23,124.38,23.25c39.95-23.95,52.15-39.72,56.57-80.95
	c0-58.46-19.63-106.44-58.84-143.89c-26.63-25.41-57.96-41.98-93.78-50.14c9.72-12.38,20.78-23.66,32.94-33.4
	c42.03-38.45,121.07-55.45,140.16,9.55c7.78,21.54,9.31,58.87,9.47,89.03v418.77c0,76.32,26.74,141.4,80.23,195.23
	c53.49,53.87,118.38,80.77,194.7,80.77c76.31,0,141.38-26.9,195.23-80.77c53.84-53.84,80.77-118.91,80.77-195.23
	c0-76.31-26.93-141.38-80.77-195.25C988,478.25,922.92,451.31,846.62,451.31z M434.75,338.99c18.12,17.11,29.71,38.58,35.04,64.21
	c2.73,25.01,4.25,56.76-12.81,73.06c-34.04,25.57-82.14-9.11-96.38-45.33c-19.37-40.58-18.75-85.82-4.49-127.04
	C387.35,307.44,413.62,319.05,434.75,338.99z M994.25,877.09c-39.95,40.66-89.16,60.98-147.63,60.98
	c-59.2,0-108.59-20.33-148.16-60.98c-39.59-40.66-59.37-90.56-59.37-149.77c0-59.18,19.96-109.11,59.91-149.77
	c39.93-40.66,89.14-60.98,147.63-60.98c57.77,0,106.79,20.52,147.09,61.5c40.29,41.04,60.45,90.77,60.45,149.25
	C1054.15,786.53,1034.18,836.43,994.25,877.09z M720.92,688.93c1.19,0,2.08,0.06,2.67,0.18v10.88c-0.6-0.12-1.49-0.18-2.67-0.18
	c-7.73,0-13.85,2.73-18.36,8.2c-4.52,5.47-6.78,13.55-6.78,24.25v46.36h-11.41v-46.36c0-14.38,3.3-25.2,9.89-32.45
	C700.86,692.56,709.74,688.93,720.92,688.93z M772.27,688.04c-12.72,0-23.57,4.49-32.54,13.46c-8.98,8.98-13.46,19.82-13.46,32.54
	c0,12.72,4.49,23.57,13.46,32.54c8.97,8.98,19.82,13.46,32.54,13.46c7.37,0,14.2-1.9,20.51-5.71c6.3-3.8,10.93-8.73,13.91-14.8
	v19.08h11.41v-44.58c0-12.72-4.46-23.56-13.37-32.54C795.8,692.53,784.98,688.04,772.27,688.04z M796.87,759
	c-6.66,6.78-14.8,10.16-24.42,10.16c-9.63,0-17.83-3.42-24.61-10.25c-6.78-6.83-10.16-15.12-10.16-24.87
	c0-9.86,3.36-18.19,10.07-24.96c6.71-6.78,14.95-10.16,24.7-10.16c9.74,0,17.92,3.39,24.52,10.16c6.6,6.78,9.9,15.1,9.9,24.96
	C806.86,743.91,803.53,752.23,796.87,759z M896.54,699.01c7.13,7.31,10.7,18.22,10.7,32.72v46.89h-11.41v-46.89
	c0-10.81-2.49-18.99-7.49-24.52c-4.99-5.53-11.77-8.29-20.33-8.29c-8.56,0-15.33,2.76-20.33,8.29c-4.99,5.53-7.49,13.7-7.49,24.52
	v46.89h-11.41v-46.89c0-14.5,3.57-25.41,10.7-32.72c7.13-7.31,16.64-10.97,28.53-10.97C879.89,688.04,889.41,691.7,896.54,699.01z
	 M997.46,653.81v53.31c-3.69-5.82-8.53-10.46-14.53-13.91c-6-3.44-12.63-5.17-19.88-5.17c-12.72,0-23.57,4.49-32.54,13.46
	c-8.98,8.98-13.46,19.82-13.46,32.54c0,12.72,4.49,23.57,13.46,32.54c8.97,8.98,19.82,13.46,32.54,13.46
	c12.72,0,23.54-4.48,32.45-13.46c8.91-8.97,13.37-19.82,13.37-32.54v-80.23H997.46z M987.74,759c-6.6,6.78-14.83,10.16-24.7,10.16
	c-9.75,0-17.95-3.39-24.6-10.16c-6.66-6.78-9.98-15.09-9.98-24.96c0-9.75,3.36-18.04,10.07-24.87c6.71-6.83,14.89-10.25,24.52-10.25
	c9.75,0,17.95,3.39,24.6,10.16c6.66,6.78,9.99,15.1,9.99,24.96C997.64,743.91,994.34,752.23,987.74,759z"/>
</svg>
